HIERARCHY
ROOT Hips
{
	OFFSET 0.00000 0.00000 0.00000
	CHANNELS 6 Xposition Yposition Zposition Zrotation Yrotation Xrotation 
	JOINT RightUpLegDummy
	{
		OFFSET 0 0 0
		CHANNELS 3 Zrotation Yrotation Xrotation
		JOINT RightUpLeg
		{
			OFFSET -3.52197 -3.41223 0.04002
			CHANNELS 3 Zrotation Yrotation Xrotation
			JOINT RightLeg
			{
				OFFSET 0.00006 -17.42390 1.60435
				CHANNELS 3 Zrotation Yrotation Xrotation
				JOINT RightFoot
				{
					OFFSET 0.06154 -16.50078 -1.63900
					CHANNELS 3 Zrotation Yrotation Xrotation
					JOINT RightToes
					{
						OFFSET 0.00298 -1.73825 3.34613
						CHANNELS 3 Zrotation Yrotation Xrotation
						End Site
						{
							OFFSET 0.00000 0.00000 0.00000
						}
					}
				}
			}
		}
	}
	JOINT SpineDummy
	{
		OFFSET 0 0 0
		CHANNELS 3 Zrotation Yrotation Xrotation
		JOINT Spine
		{
			OFFSET 0.00000 4.68130 0.00000
			CHANNELS 3 Zrotation Yrotation Xrotation
			JOINT Spine1
			{
				OFFSET -0.00000 10.10138 0.05002
				CHANNELS 3 Zrotation Yrotation Xrotation
				JOINT HEadDummy
				{
					OFFSET 0 0 0
					CHANNELS 3 Zrotation Yrotation Xrotation
					JOINT Head
					{
						OFFSET -0.00000 3.43865 0.00438
						CHANNELS 3 Zrotation Yrotation Xrotation
						End Site
						{
							OFFSET 0.00000 0.00000 0.00000
						}
					}
				}
				JOINT LeftShoulder1Dummy
				{
					OFFSET 0 0 0
					CHANNELS 3 Zrotation Yrotation Xrotation
					JOINT LeftShoulder1
					{
						OFFSET 3.53937 -0.14262 -0.08662
						CHANNELS 3 Zrotation Yrotation Xrotation
						JOINT LeftArm
						{
							OFFSET 4.04833 -0.00133 0.12681
							CHANNELS 3 Zrotation Yrotation Xrotation
							JOINT LeftForeArm
							{
								OFFSET 10.33880 -0.01036 -0.55515
								CHANNELS 3 Zrotation Yrotation Xrotation
								JOINT LeftHand
								{
									OFFSET 8.69677 0.07543 0.40060
									CHANNELS 3 Zrotation Yrotation Xrotation
									End Site
									{
										OFFSET 0.00000 0.00000 0.00000
									}
								}
							}
						}
					}
				}
				JOINT RightShoulderDummy
				{
					OFFSET 0 0 0
					CHANNELS 3 Zrotation Yrotation Xrotation
					JOINT RightShoulder
					{
						OFFSET -3.53937 -0.14262 -0.08660
						CHANNELS 3 Zrotation Yrotation Xrotation
						JOINT RightArm
						{
							OFFSET -4.04833 -0.00133 0.12683
							CHANNELS 3 Zrotation Yrotation Xrotation
							JOINT RightForeArm
							{
								OFFSET -10.37987 -0.01039 -0.55511
								CHANNELS 3 Zrotation Yrotation Xrotation
								JOINT RightHand
								{
									OFFSET -8.67398 0.07538 0.40058
									CHANNELS 3 Zrotation Yrotation Xrotation
									End Site
									{
										OFFSET 0.00000 0.00000 0.00000
									}
								}
							}
						}
					}
				}
			}
		}
	}
	JOINT LeftUpLegDummy
	{
		OFFSET 0 0 0
		CHANNELS 3 Zrotation Yrotation Xrotation
		JOINT LeftUpLeg
		{
			OFFSET 3.52197 -3.41223 0.04002
			CHANNELS 3 Zrotation Yrotation Xrotation
			JOINT LeftLeg
			{
				OFFSET -0.00012 -17.42399 1.60337
				CHANNELS 3 Zrotation Yrotation Xrotation
				JOINT LeftFoot
				{
					OFFSET -0.09972 -16.50070 -1.63802
					CHANNELS 3 Zrotation Yrotation Xrotation
					JOINT LeftToes
					{
						OFFSET -0.01575 -1.73823 3.34611
						CHANNELS 3 Zrotation Yrotation Xrotation
						End Site
						{
							OFFSET 0.00000 0.00000 0.00000
						}
					}
				}
			}
		}
	}
}
MOTION
Frames: 16
Frame Time: 0.033333
74.3353 40.4823 -25.1249 -174.3830 -87.3506 175.1150 0.0000 0.0000 0.0000 -5.0575 -8.4385 -3.3798 2.8840 -5.1235 4.9174 -0.7521 0.0638 0.2216 -0.0000 0.0000 0.0000 0.0000 0.0000 0.0000 1.4869 -0.3981 1.1974 0.3260 -0.5246 3.4180 0.0000 0.0000 0.0000 0.2217 2.5402 -1.4285 0.0000 0.0000 0.0000 -12.4792 -1.4416 0.9722 -4.5562 3.2458 -18.1998 -2.0111 0.8312 3.9366 5.3221 0.0205 -0.2441 0.0000 0.0000 0.0000 9.2259 -0.6690 0.4735 1.2396 2.3636 -19.1773 3.1279 1.2506 6.2222 -11.0909 1.4283 -0.6433 0.0000 0.0000 0.0000 2.7253 5.3965 -1.1312 -3.2990 9.2865 2.8358 1.5409 -0.1055 -2.5441 -0.0000 0.0000 -0.0000
74.3278 40.4824 -25.1428 -176.0940 -87.4295 176.8430 0.0000 0.0000 0.0000 -5.1037 -8.3565 -3.2178 2.8303 -5.2769 4.6339 -0.6034 0.0547 0.0874 -0.0000 0.0000 0.0000 0.0000 0.0000 0.0000 1.5197 -0.3900 1.4421 0.1520 -0.4711 2.8745 0.0000 0.0000 0.0000 0.2612 2.3730 -0.9685 0.0000 0.0000 0.0000 -12.4610 -1.5725 0.9968 -4.5760 3.5030 -17.9053 -2.0893 0.6464 4.1868 5.3221 0.0205 -0.2441 0.0000 0.0000 0.0000 9.4950 -0.6743 0.4796 1.0999 2.2530 -19.1561 3.1052 1.3120 6.6366 -10.9229 1.7115 -0.6587 0.0000 0.0000 0.0000 2.6671 5.3626 -1.1278 -3.3246 9.2630 2.7955 1.5691 -0.1073 -2.5184 -0.0000 0.0000 -0.0000
74.3031 40.4854 -25.1741 -177.6370 -87.5119 178.3860 0.0000 0.0000 0.0000 -5.1560 -8.3280 -2.8444 2.8638 -5.3732 4.0523 -0.4409 0.0447 -0.0320 -0.0000 0.0000 0.0000 0.0000 0.0000 0.0000 1.7798 -0.3804 1.6466 -0.3104 -0.3579 2.2939 0.0000 0.0000 0.0000 0.3678 2.2232 -0.5332 0.0000 0.0000 0.0000 -12.4127 -1.7110 1.0215 -4.6431 3.8230 -17.5793 -2.1697 0.5254 4.5023 5.3221 0.0205 -0.2441 0.0000 0.0000 0.0000 9.9784 -0.4041 0.5387 0.8175 1.7624 -18.9233 3.1297 1.4126 6.9464 -10.5387 2.0524 -0.6648 0.0000 0.0000 0.0000 2.6429 5.3431 -1.0554 -3.3566 9.2160 2.7128 1.5650 -0.1071 -2.4833 -0.0000 0.0000 -0.0000
74.2665 40.4963 -25.2099 -177.3510 -87.4284 178.1100 0.0000 0.0000 0.0000 -5.1316 -8.3529 -2.4771 3.0018 -5.2513 3.4305 -0.4063 0.0434 0.0243 -0.0000 0.0000 0.0000 0.0000 0.0000 0.0000 2.0559 -0.3498 1.3425 -0.6204 -0.2662 2.5016 0.0000 0.0000 0.0000 0.4129 2.3660 -0.6875 0.0000 0.0000 0.0000 -12.5462 -1.6778 1.0213 -4.6817 4.0119 -17.4701 -2.1969 0.6840 4.4513 5.3221 0.0205 -0.2441 0.0000 0.0000 0.0000 10.1482 -0.0240 0.6094 0.7033 1.3652 -18.5587 3.2378 1.5244 6.4824 -10.4461 1.9073 -0.6462 0.0000 0.0000 0.0000 2.7116 5.3661 -0.9436 -3.3476 9.2837 2.6074 1.5042 -0.1032 -2.4251 -0.0000 0.0000 -0.0000
74.2343 40.5085 -25.2499 -176.5890 -87.1335 177.4230 0.0000 0.0000 0.0000 -5.0233 -8.2902 -2.3411 3.0987 -5.0164 3.0085 -0.4324 0.0460 0.1893 -0.0000 0.0000 0.0000 0.0000 0.0000 0.0000 2.0865 -0.2721 0.7592 -0.5453 -0.2100 3.1420 0.0000 0.0000 0.0000 0.3818 2.6911 -1.2080 0.0000 0.0000 0.0000 -12.8088 -1.5390 1.0063 -4.7091 4.2070 -17.4265 -2.2108 0.9870 4.1247 5.3221 0.0205 -0.2441 0.0000 0.0000 0.0000 9.8797 0.1510 0.6311 0.8776 1.4326 -18.3776 3.3110 1.5983 6.0645 -10.7080 1.6965 -0.6445 0.0000 0.0000 0.0000 2.8108 5.4053 -0.8681 -3.3069 9.5544 2.4675 1.4643 -0.1006 -2.3230 -0.0000 0.0000 -0.0000
74.2170 40.5144 -25.2936 -176.7490 -86.7910 177.7020 0.0000 0.0000 0.0000 -4.8940 -8.1585 -2.4369 3.0797 -4.8136 2.8695 -0.4193 0.0463 0.2818 -0.0000 0.0000 0.0000 0.0000 0.0000 0.0000 1.9038 -0.1692 0.4129 -0.3130 -0.1562 3.4548 0.0000 0.0000 0.0000 0.3644 2.8907 -1.5621 0.0000 0.0000 0.0000 -12.9615 -1.4344 0.9925 -4.7671 4.5079 -17.3379 -2.2211 1.1607 3.9223 5.3221 0.0205 -0.2441 0.0000 0.0000 0.0000 9.5778 0.0854 0.6100 1.1096 1.7205 -18.5324 3.2421 1.6107 6.6810 -10.8214 2.1556 -0.6918 0.0000 0.0000 0.0000 2.8812 5.4472 -0.8577 -3.2947 9.8665 2.3201 1.4659 -0.1007 -2.2180 -0.0000 0.0000 -0.0000
74.2079 40.5155 -25.3353 -177.3020 -86.6260 178.3380 0.0000 0.0000 0.0000 -4.8175 -8.0742 -2.5425 3.0402 -4.7398 2.8787 -0.3898 0.0459 0.2487 -0.0000 0.0000 0.0000 0.0000 0.0000 0.0000 1.6932 -0.1088 0.3921 -0.1815 -0.1180 3.4062 0.0000 0.0000 0.0000 0.3825 2.9054 -1.7989 0.0000 0.0000 0.0000 -12.9510 -1.3560 0.9764 -4.8043 4.7687 -17.3314 -2.1857 1.1096 3.9597 5.3221 0.0205 -0.2441 0.0000 0.0000 0.0000 9.5845 -0.0884 0.5808 1.1495 1.9450 -18.8659 3.1094 1.5559 7.6401 -10.6698 2.8563 -0.7437 0.0000 0.0000 0.0000 2.9291 5.4887 -0.8592 -3.3254 9.9818 2.2053 1.4198 -0.0977 -2.1481 -0.0000 0.0000 -0.0000
74.1941 40.5165 -25.3689 -177.3310 -86.6889 178.3490 0.0000 0.0000 0.0000 -4.8011 -8.0947 -2.4892 3.0754 -4.7784 2.9012 -0.4128 0.0486 0.1701 -0.0000 0.0000 0.0000 0.0000 0.0000 0.0000 1.5237 -0.1332 0.4296 -0.0990 -0.1568 3.4444 0.0000 0.0000 0.0000 0.4342 2.9277 -2.0421 0.0000 0.0000 0.0000 -12.9338 -1.2324 0.9511 -4.7596 4.8423 -17.4407 -2.1227 0.9765 4.0512 5.3221 0.0205 -0.2441 0.0000 0.0000 0.0000 9.7370 -0.2967 0.5501 1.0582 2.2165 -19.1938 3.0455 1.3580 7.6075 -10.6945 2.6811 -0.7295 0.0000 0.0000 0.0000 2.9777 5.5118 -0.8142 -3.3278 9.8872 2.1796 1.3208 -0.0914 -2.1238 -0.0000 0.0000 -0.0000
74.1716 40.5163 -25.3948 -176.6280 -86.8326 177.5390 0.0000 0.0000 0.0000 -4.7937 -8.1516 -2.3122 3.1518 -4.8498 2.9281 -0.4929 0.0543 0.0995 -0.0000 0.0000 0.0000 0.0000 0.0000 0.0000 1.3897 -0.1805 0.4892 0.0298 -0.2314 3.5275 0.0000 0.0000 0.0000 0.4216 2.8669 -2.2483 0.0000 0.0000 0.0000 -12.9396 -1.1252 0.9300 -4.7073 4.7643 -17.4966 -2.1041 0.9159 4.1720 5.3221 0.0205 -0.2441 0.0000 0.0000 0.0000 9.7900 -0.4607 0.5236 0.9971 2.4805 -19.4233 3.0455 1.0415 6.8053 -11.0231 1.7306 -0.6667 0.0000 0.0000 0.0000 3.0357 5.5230 -0.7117 -3.2713 9.7376 2.2506 1.3005 -0.0901 -2.1508 -0.0000 0.0000 -0.0000
74.1470 40.5140 -25.4188 -175.8980 -86.9124 176.6910 0.0000 0.0000 0.0000 -4.7655 -8.1738 -2.1625 3.1886 -4.8840 3.0144 -0.5963 0.0608 -0.0034 -0.0000 0.0000 0.0000 0.0000 0.0000 0.0000 1.3381 -0.1597 0.6884 0.0736 -0.2168 3.3534 0.0000 0.0000 0.0000 0.4472 2.5913 -1.9137 0.0000 0.0000 0.0000 -12.8225 -1.1270 0.9254 -4.7782 4.5960 -17.5050 -2.1098 0.9139 4.4322 5.3221 0.0205 -0.2441 0.0000 0.0000 0.0000 9.8354 -0.4614 0.5248 0.9648 2.3285 -19.4639 3.0347 0.8665 6.4427 -11.2196 1.2691 -0.6364 0.0000 0.0000 0.0000 3.1026 5.5610 -0.5855 -3.2366 9.6076 2.3314 1.3620 -0.0940 -2.2187 -0.0000 0.0000 -0.0000
74.1261 40.5105 -25.4435 -176.1590 -86.9336 176.8950 0.0000 0.0000 0.0000 -4.7507 -8.1760 -2.1410 3.1620 -4.8725 3.1934 -0.6651 0.0641 -0.2017 -0.0000 0.0000 0.0000 0.0000 0.0000 0.0000 1.3663 -0.1042 0.8718 -0.0784 -0.1232 3.1325 0.0000 0.0000 0.0000 0.5429 2.2799 -1.1120 0.0000 0.0000 0.0000 -12.5865 -1.1855 0.9268 -4.9552 4.3833 -17.6654 -2.0490 0.8533 4.6992 5.3221 0.0205 -0.2441 0.0000 0.0000 0.0000 10.0318 -0.3112 0.5562 0.8939 1.7932 -19.3413 3.0124 0.9609 6.6993 -11.0492 1.7279 -0.6679 0.0000 0.0000 0.0000 3.1455 5.6093 -0.4966 -3.2684 9.5011 2.3596 1.3202 -0.0904 -2.2971 -0.0000 0.0000 -0.0000
74.1074 40.5045 -25.4658 -177.4450 -86.9461 178.1740 0.0000 0.0000 0.0000 -4.7766 -8.1817 -2.2268 3.0890 -4.8521 3.4746 -0.5907 0.0541 -0.5224 -0.0000 0.0000 0.0000 0.0000 0.0000 0.0000 1.3623 -0.0948 0.9606 -0.2544 -0.0726 3.0468 0.0000 0.0000 0.0000 0.5438 2.1989 -0.4937 0.0000 0.0000 0.0000 -12.4496 -1.2510 0.9337 -5.1304 4.2997 -17.9248 -1.9316 0.6586 4.8015 5.3221 0.0205 -0.2441 0.0000 0.0000 0.0000 10.2629 -0.1996 0.5824 0.8231 1.4317 -19.2372 3.0082 1.1294 6.9030 -10.7834 2.1740 -0.6914 0.0000 0.0000 0.0000 3.1286 5.6074 -0.4812 -3.2814 9.4716 2.4215 1.1380 -0.0744 -2.4070 -0.0000 0.0000 -0.0000
74.0850 40.4913 -25.4835 -178.4290 -86.8903 179.1280 0.0000 0.0000 0.0000 -4.7837 -8.1418 -2.3395 2.9772 -4.8377 3.8658 -0.3154 0.0251 -0.9632 -0.0000 0.0000 0.0000 0.0000 0.0000 0.0000 1.3009 -0.0731 1.2520 -0.2249 -0.0541 2.7403 0.0000 0.0000 0.0000 0.3476 2.2784 -0.2318 0.0000 0.0000 0.0000 -12.5820 -1.4049 0.9697 -5.3787 4.4870 -18.1476 -1.7842 0.2601 5.0377 5.3221 0.0205 -0.2441 0.0000 0.0000 0.0000 10.3381 -0.2335 0.5787 0.8526 1.3267 -19.1975 3.0022 1.3659 6.8211 -10.6880 1.9144 -0.6621 0.0000 0.0000 0.0000 3.1133 5.6038 -0.4963 -3.2301 9.5231 2.6363 0.9981 -0.0601 -2.6324 -0.0000 0.0000 -0.0000
74.0544 40.4712 -25.5012 -178.1880 -86.6912 178.7970 0.0000 0.0000 0.0000 -4.7009 -8.0230 -2.4502 2.8140 -4.7899 4.3817 0.0529 -0.0101 -1.5067 -0.0000 0.0000 0.0000 0.0000 0.0000 0.0000 1.3192 0.0604 1.8042 -0.0585 0.0487 2.2111 0.0000 0.0000 0.0000 0.0200 2.2757 -0.2000 0.0000 0.0000 0.0000 -12.9099 -1.6330 1.0297 -6.0752 4.8065 -18.7076 -1.4258 -0.6251 6.0836 5.3221 0.0205 -0.2441 0.0000 0.0000 0.0000 10.3856 -0.2829 0.5714 1.0544 0.9371 -19.0549 2.9837 2.1072 6.3588 -10.9762 1.4559 -0.6389 0.0000 0.0000 0.0000 3.2019 5.7234 -0.4636 -3.2127 9.5466 2.9675 0.9489 -0.0514 -2.9772 -0.0000 0.0000 -0.0000
74.0116 40.4509 -25.5261 -177.9080 -86.4437 178.3990 0.0000 0.0000 0.0000 -4.5718 -7.9198 -2.5768 2.5831 -4.6636 5.0137 0.3681 -0.0376 -2.1100 -0.0000 0.0000 0.0000 0.0000 0.0000 0.0000 1.4747 0.1892 2.1041 -0.0134 0.1695 2.2502 0.0000 0.0000 0.0000 -0.2740 2.2961 -0.3685 0.0000 0.0000 0.0000 -13.2671 -1.7262 1.0652 -7.6101 5.1445 -20.0502 -0.6816 -2.5463 8.3390 5.3221 0.0205 -0.2441 0.0000 0.0000 0.0000 10.7473 -0.1417 0.6074 1.5803 0.1580 -18.8339 2.9879 3.5368 4.8872 -11.9975 1.5495 -0.7098 0.0000 0.0000 0.0000 3.3451 5.9238 -0.3566 -3.2745 9.5210 3.2669 0.8666 -0.0410 -3.3018 -0.0000 0.0000 -0.0000
73.9515 40.4365 -25.5611 -178.7920 -86.3447 179.1690 0.0000 0.0000 0.0000 -4.5008 -7.8862 -2.6543 2.3157 -4.5498 5.6313 0.6481 -0.0590 -2.7057 -0.0000 0.0000 0.0000 0.0000 0.0000 0.0000 1.6009 0.0977 1.9515 -0.0977 0.0874 3.0757 0.0000 0.0000 0.0000 -0.5232 2.5885 -0.8327 0.0000 0.0000 0.0000 -13.8164 -1.6643 1.0785 -9.8945 5.8290 -21.6731 0.1939 -5.9391 11.5070 5.3221 0.0205 -0.2441 0.0000 0.0000 0.0000 11.5603 0.2586 0.7072 2.7158 -0.4957 -18.7951 3.0257 5.1858 2.2033 -13.7056 2.2210 -0.8895 0.0000 0.0000 0.0000 3.3971 6.0159 -0.1830 -3.3017 9.5246 3.4372 0.7667 -0.0311 -3.5088 -0.0000 0.0000 -0.0000
